<?xml version="1.0" encoding="iso-8859-1"?>
<!-- Generator: Adobe Illustrator 19.0.0, SVG Export Plug-In . SVG Version: 6.00 Build 0)  -->
<svg  width="128" height="128" version="1.1" id="Capa_1" xmlns="http://www.w3.org/2000/svg" xmlns:xlink="http://www.w3.org/1999/xlink" x="0px" y="0px"
	 viewBox="0 0 512 512" style="enable-background:new 0 0 512 512;" xml:space="preserve">
<g>
	<g>
		<path d="M254.16,241.14V127.08C254.16,56.895,197.265,0,127.08,0S0,56.895,0,127.08v58.924h47.804V127.08
			c0-43.712,35.563-79.275,79.276-79.275c43.713,0,79.276,35.563,79.276,79.275v114.06h-41.622V512H512V241.14H254.16z
			 M369.095,378.064v67.365h-61.455v-67.366c-11.875-9.375-18.853-23.635-18.853-38.906c0-27.339,22.242-49.58,49.581-49.58
			c27.339,0,49.58,22.242,49.58,49.58C387.947,354.429,380.97,368.689,369.095,378.064z"/>
	</g>
</g>
<g>
</g>
<g>
</g>
<g>
</g>
<g>
</g>
<g>
</g>
<g>
</g>
<g>
</g>
<g>
</g>
<g>
</g>
<g>
</g>
<g>
</g>
<g>
</g>
<g>
</g>
<g>
</g>
<g>
</g>
</svg>
